name GIL12_slow4.mot
datacolumns 153
datarows 4
range 0.23333336 0.25833336
endheader

                time	           pelvis_tx	           pelvis_ty	           pelvis_tz	         pelvis_tilt	         pelvis_list	     pelvis_rotation	       hip_flexion_r	     hip_adduction_r	      hip_rotation_r	        knee_angle_r	       ankle_angle_r	    subtalar_angle_r	         mtp_angle_r	       hip_flexion_l	     hip_adduction_l	      hip_rotation_l	        knee_angle_l	       ankle_angle_l	    subtalar_angle_l	         mtp_angle_l	    lumbar_extension	      lumbar_bending	     lumbar_rotation	     ground_force_vx	     ground_force_vy	     ground_force_vz	     ground_force_px	     ground_force_py	     ground_force_pz	     ground_force_vx	     ground_force_vy	     ground_force_vz	     ground_force_px	     ground_force_py	     ground_force_pz	     ground_torque_x	     ground_torque_y	     ground_torque_z	     ground_torque_x	     ground_torque_y	     ground_torque_z	    ground_marker_px	    ground_marker_py	    ground_marker_pz	    ground_marker_px	    ground_marker_py	    ground_marker_pz	    ground_marker_px	    ground_marker_py	    ground_marker_pz	    ground_marker_px	    ground_marker_py	    ground_marker_pz	    ground_marker_px	    ground_marker_py	    ground_marker_pz	    ground_marker_px	    ground_marker_py	    ground_marker_pz	    ground_marker_px	    ground_marker_py	    ground_marker_pz	    ground_marker_px	    ground_marker_py	    ground_marker_pz	    ground_marker_px	    ground_marker_py	    ground_marker_pz	    ground_marker_px	    ground_marker_py	    ground_marker_pz	    ground_marker_px	    ground_marker_py	    ground_marker_pz	    ground_marker_px	    ground_marker_py	    ground_marker_pz	    ground_marker_px	    ground_marker_py	    ground_marker_pz	    ground_marker_px	    ground_marker_py	    ground_marker_pz	    ground_marker_px	    ground_marker_py	    ground_marker_pz	    ground_marker_px	    ground_marker_py	    ground_marker_pz	    ground_marker_px	    ground_marker_py	    ground_marker_pz	    ground_marker_px	    ground_marker_py	    ground_marker_pz	    ground_marker_px	    ground_marker_py	    ground_marker_pz	    ground_marker_px	    ground_marker_py	    ground_marker_pz	    ground_marker_px	    ground_marker_py	    ground_marker_pz	    ground_marker_px	    ground_marker_py	    ground_marker_pz	    ground_marker_px	    ground_marker_py	    ground_marker_pz	    ground_marker_px	    ground_marker_py	    ground_marker_pz	    ground_marker_px	    ground_marker_py	    ground_marker_pz	    ground_marker_px	    ground_marker_py	    ground_marker_pz	    ground_marker_px	    ground_marker_py	    ground_marker_pz	    ground_marker_px	    ground_marker_py	    ground_marker_pz	    ground_marker_px	    ground_marker_py	    ground_marker_pz	    ground_marker_px	    ground_marker_py	    ground_marker_pz	    ground_marker_px	    ground_marker_py	    ground_marker_pz	    ground_marker_px	    ground_marker_py	    ground_marker_pz	    ground_marker_px	    ground_marker_py	    ground_marker_pz	    ground_marker_px	    ground_marker_py	    ground_marker_pz	    ground_marker_px	    ground_marker_py	    ground_marker_pz	    ground_marker_px	    ground_marker_py	    ground_marker_pz	    ground_marker_px	    ground_marker_py	    ground_marker_pz	
          0.23333336	         -1.50002146	          0.68416417	          0.25044131	         10.21705818	         -1.18722785	          8.93145275	         12.44262505	          4.01355886	         -9.99102879	        -25.64511299	          3.29156518	          0.00000000	          0.00000000	        -12.86296368	         -1.97482896	         -6.12337780	        -46.33043671	        -43.26238632	          0.00000000	          0.00000000	        -29.70118713	          5.60017347	          0.66044682	        -27.41027577	        255.80126455	         -4.94345239	         -1.43096057	          0.00000000	          0.27465677	          0.00000000	          0.00000000	          0.00000000	         -1.12529956	          0.00000000	          0.20344829	          0.00000000	         -0.34678207	          0.00000000	          0.00000000	          0.00000000	          0.00000000	         -1.54093146	          0.60554373	          0.26193517	         -1.52854145	          0.61926347	          0.31542358	         -1.54684103	          0.61742806	          0.19942757	         -1.41918683	          0.34537354	          0.28146785	         -1.56223583	          0.31783527	          0.19612931	         -1.43922019	          0.05457953	          0.26747429	         -1.77858353	          0.12998560	          0.22646438	         -1.50002146	          0.68416417	          0.25044131	         -1.48600221	          0.68557024	          0.33930552	         -1.51404083	          0.68275803	          0.16157711	         -1.63116729	          0.69101298	          0.31745571	         -1.63931072	          0.68675458	          0.23267268	         -1.41821575	          0.34009731	          0.32715392	         -1.57464445	          0.31898323	          0.14977512	         -1.42641675	          0.34752613	          0.23827150	         -1.54288936	          0.31062105	          0.23306651	         -1.43718183	          0.05283220	          0.30086654	         -1.79163313	          0.14051944	          0.19862565	         -1.43561137	          0.05732990	          0.23972163	         -1.77617741	          0.13417298	          0.26150826	         -1.56522918	          1.01238573	          0.28298414	         -1.47731256	          0.93315572	          0.31005251	         -1.48943913	          0.94041276	          0.22086419	         -1.49552298	          0.95052630	          0.27601659	         -1.46935236	          0.81236541	          0.25603506	         -1.33881319	          0.47452748	          0.26947504	         -1.51849341	          0.39798960	          0.07688641	         -1.41640925	          0.49218205	          0.32199886	         -1.49709046	          0.44805515	          0.15633741	         -1.40011215	          0.40642753	          0.31380722	         -1.50113785	          0.36359152	          0.17273904	         -1.39401913	          0.12350149	          0.36551237	         -1.63629937	          0.12793657	          0.21566290	         -1.41443479	          0.19445615	          0.31336385	         -1.63507617	          0.21125118	          0.20132837	         -1.34771717	          0.04106867	          0.26145929	         -1.78673577	          0.04504015	          0.24737887	
          0.24166669	         -1.49552500	          0.68530381	          0.25075805	         10.04542732	         -1.09163749	          8.80418682	         12.05536842	          3.98054338	        -10.04065704	        -25.39949989	          3.59367156	          0.00000000	          0.00000000	        -11.76179886	         -2.01142144	         -5.73044348	        -47.72650146	        -43.48043442	          0.00000000	          0.00000000	        -29.67529297	          5.39044571	          0.94216132	        -26.26151614	        253.32484786	         -5.18126625	         -1.43096423	          0.00000000	          0.27492932	          0.00000000	          0.00000000	          0.00000000	         -1.12248151	          0.00000000	          0.20375476	          0.00000000	         -0.34409991	          0.00000000	          0.00000000	          0.00000000	          0.00000000	         -1.53661752	          0.60681641	          0.26187730	         -1.52438414	          0.62038422	          0.31557158	         -1.54242492	          0.61878747	          0.19953150	         -1.41753662	          0.34540224	          0.28188208	         -1.55304432	          0.31876451	          0.19464490	         -1.43909085	          0.05456661	          0.26773363	         -1.77012300	          0.13287568	          0.22568968	         -1.49552500	          0.68530381	          0.25075805	         -1.48169482	          0.68652785	          0.33971488	         -1.50935519	          0.68407971	          0.16180123	         -1.62668169	          0.69245988	          0.31723154	         -1.63469207	          0.68829405	          0.23259470	         -1.41677141	          0.34010220	          0.32756931	         -1.56505954	          0.31994644	          0.14818810	         -1.42451489	          0.34769002	          0.23872484	         -1.53340614	          0.31151935	          0.23164421	         -1.43719316	          0.05280116	          0.30113322	         -1.78304744	          0.14330310	          0.19775268	         -1.43550837	          0.05763189	          0.23993260	         -1.76613677	          0.13757084	          0.26079023	         -1.56021130	          1.01369607	          0.28357783	         -1.47231901	          0.93429047	          0.31035560	         -1.48474002	          0.94155610	          0.22128366	         -1.49061251	          0.95168257	          0.27643594	         -1.46476328	          0.81347871	          0.25635734	         -1.33592165	          0.47370905	          0.27021301	         -1.50944090	          0.40000331	          0.07590683	         -1.41346240	          0.49222413	          0.32254589	         -1.48946261	          0.45003977	          0.15586755	         -1.39790177	          0.40631509	          0.31436065	         -1.49211407	          0.36552674	          0.17187957	         -1.39392567	          0.12331466	          0.36590421	         -1.62776971	          0.12959874	          0.21523157	         -1.41388500	          0.19446242	          0.31390160	         -1.62589455	          0.21278112	          0.20049463	         -1.34778619	          0.04110289	          0.26158956	         -1.77967739	          0.04728730	          0.24635932	
          0.25000003	         -1.49113655	          0.68644994	          0.25112742	          9.88264847	         -0.97149605	          8.63893032	         11.66588593	          3.94456100	        -10.14817905	        -25.14011765	          3.88149953	          0.00000000	          0.00000000	        -10.67770100	         -2.03058672	         -5.25017118	        -49.10792923	        -42.84532547	          0.00000000	          0.00000000	        -29.18917274	          5.19353485	          1.20362771	        -24.88469191	        250.83913641	         -5.19280783	         -1.43098499	          0.00000000	          0.27520584	          0.00000000	          0.00000000	          0.00000000	         -1.11948651	          0.00000000	          0.20404930	          0.00000000	         -0.34561710	          0.00000000	          0.00000000	          0.00000000	          0.00000000	         -1.53244543	          0.60808980	          0.26182854	         -1.52036822	          0.62148249	          0.31572562	         -1.53806984	          0.62016696	          0.19962981	         -1.41598034	          0.34545544	          0.28226870	         -1.54392064	          0.31973308	          0.19315280	         -1.43895757	          0.05454406	          0.26796213	         -1.76160192	          0.13582189	          0.22489782	         -1.49113655	          0.68644994	          0.25112742	         -1.47755778	          0.68745911	          0.34018293	         -1.50471532	          0.68544078	          0.16207190	         -1.62232339	          0.69387209	          0.31697133	         -1.63017178	          0.68981916	          0.23247303	         -1.41549551	          0.34010142	          0.32795349	         -1.55543816	          0.32096165	          0.14657131	         -1.42272878	          0.34777504	          0.23891269	         -1.52396119	          0.31246960	          0.23016807	         -1.43721616	          0.05276361	          0.30136946	         -1.77439237	          0.14611971	          0.19685121	         -1.43548536	          0.05785578	          0.24010949	         -1.76056337	          0.14053862	          0.26035276	         -1.55625045	          1.01480269	          0.28413692	         -1.46738780	          0.93537128	          0.31072313	         -1.48008871	          0.94270498	          0.22165820	         -1.48579562	          0.95280939	          0.27682951	         -1.45935857	          0.81467974	          0.25650999	         -1.33312476	          0.47283340	          0.27114949	         -1.50016928	          0.40215749	          0.07495964	         -1.41108596	          0.49208081	          0.32306847	         -1.48187876	          0.45211551	          0.15549938	         -1.39621437	          0.40602660	          0.31486139	         -1.48307049	          0.36758295	          0.17109147	         -1.39389896	          0.12315073	          0.36628243	         -1.61922038	          0.13136655	          0.21486281	         -1.41343582	          0.19443114	          0.31434137	         -1.61664355	          0.21441904	          0.19959161	         -1.34785318	          0.04113590	          0.26171526	         -1.77137125	          0.04967188	          0.24509619	
          0.25833336	         -1.48684382	          0.68758607	          0.25154379	          9.73398781	         -0.83180451	          8.43806934	         11.26810837	          3.91212130	        -10.30639744	        -24.86836815	          4.15962029	          0.00000000	          0.00000000	         -9.62671852	         -2.04087424	         -4.70943213	        -50.43869019	        -41.40830994	          0.00000000	          0.00000000	        -29.52405548	          4.98327494	          1.52941084	        -23.42515839	        248.79993115	         -4.89051776	         -1.43105664	          0.00000000	          0.27543488	          0.00000000	          0.00000000	          0.00000000	         -1.11632007	          0.00000000	          0.20432669	          0.00000000	         -0.34978214	          0.00000000	          0.00000000	          0.00000000	          0.00000000	         -1.52836800	          0.60933906	          0.26180190	         -1.51647246	          0.62254488	          0.31588650	         -1.53375947	          0.62154108	          0.19972512	         -1.41451371	          0.34552714	          0.28261593	         -1.53490818	          0.32075492	          0.19166121	         -1.43883407	          0.05451165	          0.26815641	         -1.75299132	          0.13875997	          0.22409971	         -1.48684382	          0.68758607	          0.25154379	         -1.47357571	          0.68835646	          0.34069979	         -1.50011206	          0.68681562	          0.16238780	         -1.61810136	          0.69522715	          0.31669411	         -1.62575340	          0.69130248	          0.23230711	         -1.41437495	          0.34009218	          0.32829356	         -1.54584563	          0.32204923	          0.14494185	         -1.42158103	          0.34801403	          0.23923059	         -1.51459908	          0.31342989	          0.22856212	         -1.43725526	          0.05271944	          0.30157116	         -1.76566100	          0.14892466	          0.19595002	         -1.43552339	          0.05802583	          0.24025489	         -1.74861181	          0.14375898	          0.25861403	         -1.55061483	          1.01607215	          0.28493145	         -1.46260881	          0.93638432	          0.31105894	         -1.47550726	          0.94380563	          0.22206506	         -1.48107910	          0.95390588	          0.27719936	         -1.45555246	          0.81564212	          0.25683701	         -1.33042479	          0.47189888	          0.27225202	         -1.49076533	          0.40445423	          0.07403576	         -1.40839159	          0.49196446	          0.32374963	         -1.47427285	          0.45423892	          0.15527061	         -1.39471960	          0.40573767	          0.31546715	         -1.47404063	          0.36974916	          0.17031799	         -1.39391959	          0.12300199	          0.36663055	         -1.61063600	          0.13320853	          0.21446411	         -1.41298115	          0.19437410	          0.31467894	         -1.60730946	          0.21618217	          0.19859959	         -1.34792089	          0.04116724	          0.26182812	         -1.76179183	          0.05214958	          0.24352266	
